<svg version="1.1" xmlns="http://www.w3.org/2000/svg">
    <defs>
        <!-- Media Icons -->
        <symbol id="media-play" viewBox="0 0 1200 1200">
            <path d="m274.88 1125c-33.117 0-64.883-13.156-88.301-36.574s-36.574-55.184-36.574-88.301v-798.38c0-33.617 13.355-65.855 37.125-89.625s56.008-37.125 89.625-37.125c21.383 0.16406 42.344 5.9844 60.75 16.875l642.38 372c41.719 23.934 67.816 68.012 68.738 116.1 0.92188 48.09-23.465 93.133-64.238 118.65l-643.12 407.25c-19.895 12.469-42.895 19.098-66.375 19.125zm0-975c-13.398 0.48438-26.082 6.1523-35.387 15.805-9.3047 9.6523-14.496 22.539-14.488 35.945v798.38c0.097656 13.199 5.3828 25.828 14.715 35.16 9.332 9.332 21.961 14.617 35.16 14.715 8.9375-0.28906 17.621-3.0117 25.125-7.875l646.12-406.88c18.398-11.668 29.355-32.105 28.898-53.883-0.46094-21.781-12.273-41.738-31.148-52.617l-643.88-372c-7.0469-4.1992-15.051-6.5234-23.25-6.75z"/>
        </symbol>
        <symbol id="media-pause" viewBox="0 0 1200 1200">
            <path d="m412.5 75h-150c-29.836 0-58.453 11.852-79.551 32.949-21.098 21.098-32.949 49.715-32.949 79.551v825c0 29.836 11.852 58.453 32.949 79.551 21.098 21.098 49.715 32.949 79.551 32.949h150c29.836 0 58.453-11.852 79.551-32.949 21.098-21.098 32.949-49.715 32.949-79.551v-825c0-29.836-11.852-58.453-32.949-79.551-21.098-21.098-49.715-32.949-79.551-32.949zm37.5 937.5c0 9.9453-3.9492 19.484-10.984 26.516-7.0312 7.0352-16.57 10.984-26.516 10.984h-150c-9.9453 0-19.484-3.9492-26.516-10.984-7.0352-7.0312-10.984-16.57-10.984-26.516v-825c0-9.9453 3.9492-19.484 10.984-26.516 7.0312-7.0352 16.57-10.984 26.516-10.984h150c9.9453 0 19.484 3.9492 26.516 10.984 7.0352 7.0312 10.984 16.57 10.984 26.516zm487.5-937.5h-150c-29.836 0-58.453 11.852-79.551 32.949-21.098 21.098-32.949 49.715-32.949 79.551v825c0 29.836 11.852 58.453 32.949 79.551 21.098 21.098 49.715 32.949 79.551 32.949h150c29.836 0 58.453-11.852 79.551-32.949 21.098-21.098 32.949-49.715 32.949-79.551v-825c0-29.836-11.852-58.453-32.949-79.551-21.098-21.098-49.715-32.949-79.551-32.949zm37.5 937.5c0 9.9453-3.9492 19.484-10.984 26.516-7.0312 7.0352-16.57 10.984-26.516 10.984h-150c-9.9453 0-19.484-3.9492-26.516-10.984-7.0352-7.0312-10.984-16.57-10.984-26.516v-825c0-9.9453 3.9492-19.484 10.984-26.516 7.0312-7.0352 16.57-10.984 26.516-10.984h150c9.9453 0 19.484 3.9492 26.516 10.984 7.0352 7.0312 10.984 16.57 10.984 26.516z"/>
        </symbol>
        <symbol id="media-stop" viewBox="0 0 1200 1200">
            <path d="m1012.5 1125h-825c-29.836 0-58.453-11.852-79.551-32.949-21.098-21.098-32.949-49.715-32.949-79.551v-825c0-29.836 11.852-58.453 32.949-79.551 21.098-21.098 49.715-32.949 79.551-32.949h825c29.836 0 58.453 11.852 79.551 32.949 21.098 21.098 32.949 49.715 32.949 79.551v825c0 29.836-11.852 58.453-32.949 79.551-21.098 21.098-49.715 32.949-79.551 32.949zm-825-975c-9.9453 0-19.484 3.9492-26.516 10.984-7.0352 7.0312-10.984 16.57-10.984 26.516v825c0 9.9453 3.9492 19.484 10.984 26.516 7.0312 7.0352 16.57 10.984 26.516 10.984h825c9.9453 0 19.484-3.9492 26.516-10.984 7.0352-7.0312 10.984-16.57 10.984-26.516v-825c0-9.9453-3.9492-19.484-10.984-26.516-7.0312-7.0352-16.57-10.984-26.516-10.984z"/>
        </symbol>
        <symbol id="media-forward" viewBox="0 0 1200 1200">
            <path d="m1012.5 75h-75c-29.836 0-58.453 11.852-79.551 32.949-21.098 21.098-32.949 49.715-32.949 79.551v825c0 29.836 11.852 58.453 32.949 79.551 21.098 21.098 49.715 32.949 79.551 32.949h75c29.836 0 58.453-11.852 79.551-32.949 21.098-21.098 32.949-49.715 32.949-79.551v-825c0-29.836-11.852-58.453-32.949-79.551-21.098-21.098-49.715-32.949-79.551-32.949zm37.5 937.5c0 9.9453-3.9492 19.484-10.984 26.516-7.0312 7.0352-16.57 10.984-26.516 10.984h-75c-9.9453 0-19.484-3.9492-26.516-10.984-7.0352-7.0312-10.984-16.57-10.984-26.516v-825c0-9.9453 3.9492-19.484 10.984-26.516 7.0312-7.0352 16.57-10.984 26.516-10.984h75c9.9453 0 19.484 3.9492 26.516 10.984 7.0352 7.0312 10.984 16.57 10.984 26.516zm-776.25-906c-22.691-20.887-52.629-32.102-83.457-31.266-30.832 0.83594-60.117 13.656-81.645 35.738-21.527 22.082-33.598 51.688-33.648 82.527v813c0.050781 30.84 12.121 60.445 33.648 82.527 21.527 22.082 50.812 34.902 81.645 35.738 30.828 0.83594 60.766-10.379 83.457-31.266l436.5-403.12c25.324-23.227 39.742-56.012 39.742-90.375s-14.418-67.148-39.742-90.375zm385.88 528.75-436.88 403.12c-7.8945 7.4883-18.367 11.648-29.25 11.625-11.535 0-22.602-4.582-30.758-12.742-8.1602-8.1562-12.742-19.223-12.742-30.758v-813c0-11.535 4.582-22.602 12.742-30.758 8.1562-8.1602 19.223-12.742 30.758-12.742 10.883-0.023438 21.355 4.1367 29.25 11.625l436.88 403.12c9.832 9.0859 15.422 21.863 15.422 35.25s-5.5898 26.164-15.422 35.25z"/>
        </symbol>
        <symbol id="media-back" viewBox="0 0 1200 1200">
            <path d="m262.5 75h-75c-29.836 0-58.453 11.852-79.551 32.949-21.098 21.098-32.949 49.715-32.949 79.551v825c0 29.836 11.852 58.453 32.949 79.551 21.098 21.098 49.715 32.949 79.551 32.949h75c29.836 0 58.453-11.852 79.551-32.949 21.098-21.098 32.949-49.715 32.949-79.551v-825c0-29.836-11.852-58.453-32.949-79.551-21.098-21.098-49.715-32.949-79.551-32.949zm37.5 937.5c0 9.9453-3.9492 19.484-10.984 26.516-7.0312 7.0352-16.57 10.984-26.516 10.984h-75c-9.9453 0-19.484-3.9492-26.516-10.984-7.0352-7.0312-10.984-16.57-10.984-26.516v-825c0-9.9453 3.9492-19.484 10.984-26.516 7.0312-7.0352 16.57-10.984 26.516-10.984h75c9.9453 0 19.484 3.9492 26.516 10.984 7.0352 7.0312 10.984 16.57 10.984 26.516zm706.5-937.5c-29.75 0.089844-58.383 11.328-80.25 31.5l-436.5 403.12c-25.324 23.227-39.742 56.012-39.742 90.375s14.418 67.148 39.742 90.375l436.5 403.12c22.691 20.887 52.629 32.102 83.457 31.266 30.832-0.83594 60.117-13.656 81.645-35.738 21.527-22.082 33.598-51.688 33.648-82.527v-813c-0.097656-31.398-12.617-61.48-34.816-83.684-22.203-22.199-52.285-34.719-83.684-34.816zm43.5 931.5c0 11.535-4.582 22.602-12.742 30.758-8.1562 8.1602-19.223 12.742-30.758 12.742-10.883 0.023438-21.355-4.1367-29.25-11.625l-436.88-403.12c-9.832-9.0859-15.422-21.863-15.422-35.25s5.5898-26.164 15.422-35.25l436.88-403.12c7.8945-7.4883 18.367-11.648 29.25-11.625 11.535 0 22.602 4.582 30.758 12.742 8.1602 8.1562 12.742 19.223 12.742 30.758z"/>
        </symbol>
        <symbol id="media-shuffle" viewBox="0 0 1200 1200">
            <path d="m718.5 396.38-246.38 443.62c-22.738 40.922-56.012 75.02-96.363 98.758-40.352 23.738-86.32 36.25-133.14 36.242h-130.12c-13.398 0-25.777-7.1484-32.477-18.75-6.6992-11.602-6.6992-25.898 0-37.5 6.6992-11.602 19.078-18.75 32.477-18.75h130.12c33.426 0 66.246-8.9336 95.059-25.879 28.812-16.945 52.57-41.281 68.816-70.496l246.38-443.62c22.738-40.922 56.012-75.02 96.363-98.758 40.352-23.738 86.32-36.25 133.14-36.242h114.75l-86.25-85.875c-9.5117-9.5117-13.227-23.375-9.7461-36.371 3.4805-12.992 13.633-23.145 26.625-26.625 12.996-3.4805 26.859 0.23438 36.371 9.7461l150 150c7.0977 7.043 11.094 16.625 11.094 26.625s-3.9961 19.582-11.094 26.625l-150 150c-7.043 7.0977-16.625 11.094-26.625 11.094s-19.582-3.9961-26.625-11.094c-7.0977-7.043-11.094-16.625-11.094-26.625s3.9961-19.582 11.094-26.625l86.25-85.875h-114.75c-33.426 0-66.246 8.9336-95.059 25.879-28.812 16.945-52.57 41.281-68.816 70.496zm245.62 364.5c-9.5117-9.5117-23.375-13.227-36.371-9.7461-12.992 3.4805-23.145 13.633-26.625 26.625-3.4805 12.996 0.23438 26.859 9.7461 36.371l86.25 85.875h-114.75c-33.465-0.035156-66.309-9.0273-95.125-26.039-28.816-17.012-52.555-41.43-68.75-70.711l-37.5-67.5c-6.6992-11.656-19.105-18.852-32.551-18.879-13.441-0.027344-25.879 7.1211-32.625 18.75-6.7461 11.629-6.7734 25.973-0.074219 37.629l37.5 67.125c22.758 40.797 55.988 74.785 96.27 98.449 40.277 23.664 86.141 36.152 132.86 36.176h114.75l-86.25 85.875c-7.0977 7.043-11.094 16.625-11.094 26.625s3.9961 19.582 11.094 26.625c7.043 7.0977 16.625 11.094 26.625 11.094s19.582-3.9961 26.625-11.094l150-150c7.0977-7.043 11.094-16.625 11.094-26.625s-3.9961-19.582-11.094-26.625zm-851.62-460.88h130.12c33.465 0.035156 66.309 9.0273 95.125 26.039 28.816 17.012 52.555 41.43 68.75 70.711l37.5 67.5c3.2578 5.793 7.9922 10.617 13.727 13.977 5.7305 3.3594 12.254 5.1367 18.898 5.1484 6.4414-0.019531 12.77-1.6992 18.375-4.875 8.6406-4.8828 14.992-12.996 17.664-22.555 2.6719-9.5586 1.4453-19.789-3.4141-28.445l-37.5-67.125c-22.66-40.938-55.852-75.074-96.137-98.875-40.281-23.801-86.199-36.402-132.99-36.5h-130.12c-13.398 0-25.777 7.1484-32.477 18.75-6.6992 11.602-6.6992 25.898 0 37.5 6.6992 11.602 19.078 18.75 32.477 18.75z"/>
        </symbol>
        <symbol id="media-repeat" viewBox="0 0 1200 1200">
            <path d="m1087.5 600v112.5c0 46.078-12.129 91.344-35.168 131.25-23.039 39.906-56.176 73.043-96.082 96.082-39.906 23.039-85.172 35.168-131.25 35.168h-622.12l86.25 85.875c7.0977 7.043 11.094 16.625 11.094 26.625s-3.9961 19.582-11.094 26.625c-7.043 7.0977-16.625 11.094-26.625 11.094s-19.582-3.9961-26.625-11.094l-150-150c-7.0977-7.043-11.094-16.625-11.094-26.625s3.9961-19.582 11.094-26.625l150-150c9.5117-9.5117 23.375-13.227 36.371-9.7461 12.992 3.4805 23.145 13.633 26.625 26.625 3.4805 12.996-0.23438 26.859-9.7461 36.371l-86.25 85.875h622.12c32.914 0 65.246-8.6641 93.75-25.121 28.504-16.457 52.172-40.125 68.629-68.629 16.457-28.504 25.121-60.836 25.121-93.75v-112.5c0-13.398 7.1484-25.777 18.75-32.477 11.602-6.6992 25.898-6.6992 37.5 0 11.602 6.6992 18.75 19.078 18.75 32.477zm26.625-364.12-150-150c-9.5117-9.5117-23.375-13.227-36.371-9.7461-12.992 3.4805-23.145 13.633-26.625 26.625-3.4805 12.996 0.23438 26.859 9.7461 36.371l86.25 85.875h-622.12c-69.621 0-136.39 27.656-185.62 76.883-49.227 49.23-76.883 116-76.883 185.62v112.5c0 13.398 7.1484 25.777 18.75 32.477 11.602 6.6992 25.898 6.6992 37.5 0 11.602-6.6992 18.75-19.078 18.75-32.477v-112.5c0-49.727 19.754-97.418 54.918-132.58 35.164-35.164 82.855-54.918 132.58-54.918h622.12l-86.25 85.875c-7.0977 7.043-11.094 16.625-11.094 26.625s3.9961 19.582 11.094 26.625c7.043 7.0977 16.625 11.094 26.625 11.094s19.582-3.9961 26.625-11.094l150-150c7.0977-7.043 11.094-16.625 11.094-26.625s-3.9961-19.582-11.094-26.625z"/>
        </symbol>
        <symbol id="media-repeat-once" viewBox="0 0 1200 1200">
            <path d="m1087.5 600v112.5c0 46.078-12.129 91.344-35.168 131.25-23.039 39.906-56.176 73.043-96.082 96.082-39.906 23.039-85.172 35.168-131.25 35.168h-622.12l86.25 85.875c7.0977 7.043 11.094 16.625 11.094 26.625s-3.9961 19.582-11.094 26.625c-7.043 7.0977-16.625 11.094-26.625 11.094s-19.582-3.9961-26.625-11.094l-150-150c-7.0977-7.043-11.094-16.625-11.094-26.625s3.9961-19.582 11.094-26.625l150-150c9.5117-9.5117 23.375-13.227 36.371-9.7461 12.992 3.4805 23.145 13.633 26.625 26.625 3.4805 12.996-0.23438 26.859-9.7461 36.371l-86.25 85.875h622.12c32.914 0 65.246-8.6641 93.75-25.121 28.504-16.457 52.172-40.125 68.629-68.629 16.457-28.504 25.121-60.836 25.121-93.75v-112.5c0-13.398 7.1484-25.777 18.75-32.477 11.602-6.6992 25.898-6.6992 37.5 0 11.602 6.6992 18.75 19.078 18.75 32.477zm26.625-364.12-150-150c-9.5117-9.5117-23.375-13.227-36.371-9.7461-12.992 3.4805-23.145 13.633-26.625 26.625-3.4805 12.996 0.23438 26.859 9.7461 36.371l86.25 85.875h-622.12c-69.621 0-136.39 27.656-185.62 76.883-49.227 49.23-76.883 116-76.883 185.62v112.5c0 13.398 7.1484 25.777 18.75 32.477 11.602 6.6992 25.898 6.6992 37.5 0 11.602-6.6992 18.75-19.078 18.75-32.477v-112.5c0-49.727 19.754-97.418 54.918-132.58 35.164-35.164 82.855-54.918 132.58-54.918h622.12l-86.25 85.875c-7.0977 7.043-11.094 16.625-11.094 26.625s3.9961 19.582 11.094 26.625c7.043 7.0977 16.625 11.094 26.625 11.094s19.582-3.9961 26.625-11.094l150-150c7.0977-7.043 11.094-16.625 11.094-26.625s-3.9961-19.582-11.094-26.625zm-476.62 514.12v-300c0-13.398-7.1484-25.777-18.75-32.477-11.602-6.6992-25.898-6.6992-37.5 0-11.602 6.6992-18.75 19.078-18.75 32.477v300c0 13.398 7.1484 25.777 18.75 32.477 11.602 6.6992 25.898 6.6992 37.5 0 11.602-6.6992 18.75-19.078 18.75-32.477z"/>
        </symbol>
        <!-- Speaker Icons -->
        <symbol id="speaker" viewBox="0 0 1200 1200">
            <path d="m656.25 150c-20.273 0.078125-39.984 6.6523-56.25 18.75l-274.88 206.25h-137.62c-29.836 0-58.453 11.852-79.551 32.949-21.098 21.098-32.949 49.715-32.949 79.551v225c0 29.836 11.852 58.453 32.949 79.551 21.098 21.098 49.715 32.949 79.551 32.949h137.62l274.88 206.25c16.266 12.098 35.977 18.672 56.25 18.75 24.863 0 48.711-9.8789 66.293-27.457 17.578-17.582 27.457-41.43 27.457-66.293v-712.5c0-24.863-9.8789-48.711-27.457-66.293-17.582-17.578-41.43-27.457-66.293-27.457zm18.75 806.25c-0.49219 6.8672-4.5703 12.965-10.73 16.043-6.1562 3.0781-13.48 2.6797-19.27-1.043l-285-213.75c-6.4922-4.8672-14.387-7.5-22.5-7.5h-150c-9.9453 0-19.484-3.9492-26.516-10.984-7.0352-7.0312-10.984-16.57-10.984-26.516v-225c0-9.9453 3.9492-19.484 10.984-26.516 7.0312-7.0352 16.57-10.984 26.516-10.984h150c8.1133 0 16.008-2.6328 22.5-7.5l285-213.75c5.7891-3.7227 13.113-4.1211 19.27-1.043 6.1602 3.0781 10.238 9.1758 10.73 16.043zm450-356.25c0.18359 54.203-10.398 107.9-31.125 157.98s-51.191 95.551-89.625 133.77c-7.043 7.0977-16.625 11.094-26.625 11.094s-19.582-3.9961-26.625-11.094c-7.0977-7.043-11.094-16.625-11.094-26.625s3.9961-19.582 11.094-26.625c63.203-63.281 98.703-149.06 98.703-238.5s-35.5-175.22-98.703-238.5c-9.5117-9.5117-13.227-23.375-9.7461-36.371 3.4805-12.992 13.633-23.145 26.625-26.625 12.996-3.4805 26.859 0.23438 36.371 9.7461 38.434 38.219 68.898 83.688 89.625 133.77s31.309 103.78 31.125 157.98zm-150 0c0.43359 34.848-6.1836 69.422-19.461 101.64-13.277 32.223-32.934 61.426-57.789 85.855-7.0273 6.9844-16.531 10.906-26.438 10.906s-19.41-3.9219-26.438-10.906c-6.9844-7.0273-10.906-16.531-10.906-26.438s3.9219-19.41 10.906-26.438c35.035-35.145 54.711-82.75 54.711-132.38s-19.676-97.23-54.711-132.38c-7.9805-6.7422-12.785-16.504-13.262-26.941-0.47656-10.434 3.4219-20.594 10.758-28.035 7.332-7.4375 17.438-11.48 27.879-11.152s20.273 4.9961 27.125 12.879c24.426 23.91 43.863 52.434 57.188 83.91 13.324 31.477 20.273 65.285 20.438 99.465z"/>
        </symbol>
        <symbol id="speaker-mute" viewBox="0 0 1200 1200">
            <path d="m656.25 150c-20.273 0.078125-39.984 6.6523-56.25 18.75l-274.88 206.25h-137.62c-29.836 0-58.453 11.852-79.551 32.949-21.098 21.098-32.949 49.715-32.949 79.551v225c0 29.836 11.852 58.453 32.949 79.551 21.098 21.098 49.715 32.949 79.551 32.949h137.62l274.88 206.25c16.266 12.098 35.977 18.672 56.25 18.75 24.863 0 48.711-9.8789 66.293-27.457 17.578-17.582 27.457-41.43 27.457-66.293v-712.5c0-24.863-9.8789-48.711-27.457-66.293-17.582-17.578-41.43-27.457-66.293-27.457zm18.75 806.25c-0.49219 6.8672-4.5703 12.965-10.73 16.043-6.1562 3.0781-13.48 2.6797-19.27-1.043l-285-213.75c-6.4922-4.8672-14.387-7.5-22.5-7.5h-150c-9.9453 0-19.484-3.9492-26.516-10.984-7.0352-7.0312-10.984-16.57-10.984-26.516v-225c0-9.9453 3.9492-19.484 10.984-26.516 7.0312-7.0352 16.57-10.984 26.516-10.984h150c8.1133 0 16.008-2.6328 22.5-7.5l285-213.75c5.7891-3.7227 13.113-4.1211 19.27-1.043 6.1602 3.0781 10.238 9.1758 10.73 16.043zm439.12-270.38c7.0977 7.043 11.094 16.625 11.094 26.625s-3.9961 19.582-11.094 26.625c-7.043 7.0977-16.625 11.094-26.625 11.094s-19.582-3.9961-26.625-11.094l-85.875-86.25-85.875 86.25c-7.043 7.0977-16.625 11.094-26.625 11.094s-19.582-3.9961-26.625-11.094c-7.0977-7.043-11.094-16.625-11.094-26.625s3.9961-19.582 11.094-26.625l86.25-85.875-86.25-85.875c-9.5117-9.5117-13.227-23.375-9.7461-36.371 3.4805-12.992 13.633-23.145 26.625-26.625 12.996-3.4805 26.859 0.23438 36.371 9.7461l85.875 86.25 85.875-86.25c9.5117-9.5117 23.375-13.227 36.371-9.7461 12.992 3.4805 23.145 13.633 26.625 26.625 3.4805 12.996-0.23438 26.859-9.7461 36.371l-86.25 85.875z"/>
        </symbol>
        <symbol id="speaker-up" viewBox="0 0 1200 1200">
            <path d="m1125 600c0 9.9453-3.9492 19.484-10.984 26.516-7.0312 7.0352-16.57 10.984-26.516 10.984h-75v75c0 13.398-7.1484 25.777-18.75 32.477-11.602 6.6992-25.898 6.6992-37.5 0-11.602-6.6992-18.75-19.078-18.75-32.477v-75h-75c-13.398 0-25.777-7.1484-32.477-18.75-6.6992-11.602-6.6992-25.898 0-37.5 6.6992-11.602 19.078-18.75 32.477-18.75h75v-75c0-13.398 7.1484-25.777 18.75-32.477 11.602-6.6992 25.898-6.6992 37.5 0 11.602 6.6992 18.75 19.078 18.75 32.477v75h75c9.9453 0 19.484 3.9492 26.516 10.984 7.0352 7.0312 10.984 16.57 10.984 26.516zm-375-356.25v712.5c0 24.863-9.8789 48.711-27.457 66.293-17.582 17.578-41.43 27.457-66.293 27.457-20.273-0.078125-39.984-6.6523-56.25-18.75l-274.88-206.25h-137.62c-29.836 0-58.453-11.852-79.551-32.949-21.098-21.098-32.949-49.715-32.949-79.551v-225c0-29.836 11.852-58.453 32.949-79.551 21.098-21.098 49.715-32.949 79.551-32.949h137.62l274.88-206.25c16.266-12.098 35.977-18.672 56.25-18.75 24.863 0 48.711 9.8789 66.293 27.457 17.578 17.582 27.457 41.43 27.457 66.293zm-75 0c-0.49219-6.8672-4.5703-12.965-10.73-16.043-6.1562-3.0781-13.48-2.6797-19.27 1.043l-285 213.75c-6.4922 4.8672-14.387 7.5-22.5 7.5h-150c-9.9453 0-19.484 3.9492-26.516 10.984-7.0352 7.0312-10.984 16.57-10.984 26.516v225c0 9.9453 3.9492 19.484 10.984 26.516 7.0312 7.0352 16.57 10.984 26.516 10.984h150c8.1133 0 16.008 2.6328 22.5 7.5l285 213.75c5.7891 3.7227 13.113 4.1211 19.27 1.043 6.1602-3.0781 10.238-9.1758 10.73-16.043z"/>
        </symbol>
        <symbol id="speaker-down" viewBox="0 0 1200 1200">
            <path d="m1125 600c0 9.9453-3.9492 19.484-10.984 26.516-7.0312 7.0352-16.57 10.984-26.516 10.984h-225c-13.398 0-25.777-7.1484-32.477-18.75-6.6992-11.602-6.6992-25.898 0-37.5 6.6992-11.602 19.078-18.75 32.477-18.75h225c9.9453 0 19.484 3.9492 26.516 10.984 7.0352 7.0312 10.984 16.57 10.984 26.516zm-375-356.25v712.5c0 24.863-9.8789 48.711-27.457 66.293-17.582 17.578-41.43 27.457-66.293 27.457-20.273-0.078125-39.984-6.6523-56.25-18.75l-274.88-206.25h-137.62c-29.836 0-58.453-11.852-79.551-32.949-21.098-21.098-32.949-49.715-32.949-79.551v-225c0-29.836 11.852-58.453 32.949-79.551 21.098-21.098 49.715-32.949 79.551-32.949h137.62l274.88-206.25c16.266-12.098 35.977-18.672 56.25-18.75 24.863 0 48.711 9.8789 66.293 27.457 17.578 17.582 27.457 41.43 27.457 66.293zm-75 0c-0.49219-6.8672-4.5703-12.965-10.73-16.043-6.1562-3.0781-13.48-2.6797-19.27 1.043l-285 213.75c-6.4922 4.8672-14.387 7.5-22.5 7.5h-150c-9.9453 0-19.484 3.9492-26.516 10.984-7.0352 7.0312-10.984 16.57-10.984 26.516v225c0 9.9453 3.9492 19.484 10.984 26.516 7.0312 7.0352 16.57 10.984 26.516 10.984h150c8.1133 0 16.008 2.6328 22.5 7.5l285 213.75c5.7891 3.7227 13.113 4.1211 19.27 1.043 6.1602-3.0781 10.238-9.1758 10.73-16.043z"/>
        </symbol>
        <!-- Navigation Icons -->
        <symbol id="disc" viewBox="0 0 1200 1200">
            <path d="m600 75c-139.24 0-272.77 55.312-371.23 153.77s-153.77 231.99-153.77 371.23 55.312 272.77 153.77 371.23 231.99 153.77 371.23 153.77 272.77-55.312 371.23-153.77 153.77-231.99 153.77-371.23c0-92.156-24.258-182.69-70.336-262.5-46.078-79.809-112.36-146.09-192.16-192.16-79.809-46.078-170.34-70.336-262.5-70.336zm0 975c-119.35 0-233.81-47.41-318.2-131.8s-131.8-198.85-131.8-318.2 47.41-233.81 131.8-318.2 198.85-131.8 318.2-131.8 233.81 47.41 318.2 131.8 131.8 198.85 131.8 318.2-47.41 233.81-131.8 318.2-198.85 131.8-318.2 131.8zm0-600c-39.781 0-77.938 15.805-106.07 43.934s-43.934 66.285-43.934 106.07 15.805 77.938 43.934 106.07 66.285 43.934 106.07 43.934 77.938-15.805 106.07-43.934 43.934-66.285 43.934-106.07-15.805-77.938-43.934-106.07-66.285-43.934-106.07-43.934zm0 225c-19.891 0-38.969-7.9023-53.031-21.969-14.066-14.062-21.969-33.141-21.969-53.031s7.9023-38.969 21.969-53.031c14.062-14.066 33.141-21.969 53.031-21.969s38.969 7.9023 53.031 21.969c14.066 14.062 21.969 33.141 21.969 53.031s-7.9023 38.969-21.969 53.031c-14.062 14.066-33.141 21.969-53.031 21.969zm330.38-152.25c-3.9688 1.4414-8.1523 2.2031-12.375 2.25-7.75-0.03125-15.305-2.4648-21.617-6.9609-6.3125-4.5-11.074-10.848-13.633-18.164-14.918-42.121-39.059-80.375-70.652-111.97-31.598-31.594-69.852-55.734-111.97-70.652-11.508-5.1992-19.625-15.836-21.598-28.309-1.9766-12.469 2.457-25.098 11.793-33.598 9.3359-8.5 22.324-11.73 34.555-8.5938 52.875 18.285 100.91 48.344 140.47 87.906 39.562 39.559 69.621 87.594 87.906 140.47 3.2422 9.3516 2.6602 19.605-1.625 28.523-4.2852 8.9219-11.926 15.789-21.25 19.102zm-407.62 407.62c-2.5586 7.3164-7.3203 13.664-13.633 18.164-6.3125 4.4961-13.867 6.9297-21.617 6.9609-4.2227-0.046875-8.4062-0.80859-12.375-2.25-52.875-18.285-100.91-48.344-140.47-87.906-39.562-39.559-69.621-87.594-87.906-140.47-3.1367-12.23 0.09375-25.219 8.5938-34.555 8.5-9.3359 21.129-13.77 33.598-11.793 12.473 1.9727 23.109 10.09 28.309 21.598 14.918 42.121 39.059 80.375 70.652 111.97 31.598 31.594 69.852 55.734 111.97 70.652 9.3242 3.3125 16.965 10.18 21.25 19.102 4.2852 8.918 4.8672 19.172 1.625 28.523z"/>
        </symbol>
        <symbol id="playlist" viewBox="0 0 1200 1200">
            <path d="m75 187.5c0-9.9453 3.9492-19.484 10.984-26.516 7.0312-7.0352 16.57-10.984 26.516-10.984h600c13.398 0 25.777 7.1484 32.477 18.75 6.6992 11.602 6.6992 25.898 0 37.5-6.6992 11.602-19.078 18.75-32.477 18.75h-600c-9.9453 0-19.484-3.9492-26.516-10.984-7.0352-7.0312-10.984-16.57-10.984-26.516zm37.5 375h600c13.398 0 25.777-7.1484 32.477-18.75 6.6992-11.602 6.6992-25.898 0-37.5-6.6992-11.602-19.078-18.75-32.477-18.75h-600c-13.398 0-25.777 7.1484-32.477 18.75-6.6992 11.602-6.6992 25.898 0 37.5 6.6992 11.602 19.078 18.75 32.477 18.75zm300 262.5h-300c-13.398 0-25.777 7.1484-32.477 18.75-6.6992 11.602-6.6992 25.898 0 37.5 6.6992 11.602 19.078 18.75 32.477 18.75h300c13.398 0 25.777-7.1484 32.477-18.75 6.6992-11.602 6.6992-25.898 0-37.5-6.6992-11.602-19.078-18.75-32.477-18.75zm712.5-375c0 13.398-7.1484 25.777-18.75 32.477-11.602 6.6992-25.898 6.6992-37.5 0-11.602-6.6992-18.75-19.078-18.75-32.477 0-51.375-25.875-69.375-75-99-12-7.125-24.75-15-37.5-23.625v572.62c0 82.875-84 150-187.5 150s-187.5-67.125-187.5-150 84-150 187.5-150c39.609-0.23828 78.52 10.395 112.5 30.75v-593.25c0-13.398 7.1484-25.777 18.75-32.477 11.602-6.6992 25.898-6.6992 37.5 0 11.602 6.6992 18.75 19.078 18.75 32.477 0 51.375 25.875 69.375 75 99s112.5 67.125 112.5 163.5zm-262.5 450c0-40.5-51.375-75-112.5-75s-112.5 34.5-112.5 75 51.375 75 112.5 75 112.5-34.5 112.5-75z"/>
        </symbol>
        <symbol id="visualizer" viewBox="0 0 5000 5000">
            <path d="M4449.86,1412.18c132.053,0 239.115,132.053 239.115,239.115l0,2656.83c0,132.053 -107.062,239.115 -239.115,239.115c-132.053,0 -239.115,-132.053 -239.115,-239.115l0,-2656.83c0,-132.053 107.062,-239.115 239.115,-239.115Z" style="fill-rule:nonzero;"/>
            <path d="M3474.89,452.756c132.053,-0 239.115,132.053 239.115,239.115l0,3616.2c0,132.053 -107.062,239.115 -239.115,239.115c-132.053,0 -239.115,-132.053 -239.115,-239.115l0,-3616.2c0,-132.053 107.062,-239.115 239.115,-239.115Z" style="fill-rule:nonzero;"/>
            <path d="M2499.97,3080.73c132.053,-0 239.115,132.053 239.115,239.115l0,988.23c0,132.053 -107.062,239.115 -239.115,239.115c-132.053,0 -239.115,-132.053 -239.115,-239.115l0,-988.23c0,-132.053 107.062,-239.115 239.115,-239.115Z" style="fill-rule:nonzero;"/>
            <path d="M1525.05,2092.44c132.053,-0 239.115,132.053 239.115,239.115l-0,1976.52c-0,132.053 -107.062,239.115 -239.115,239.115c-132.053,0 -239.115,-132.053 -239.115,-239.115l-0,-1976.52c-0,-132.053 107.062,-239.115 239.115,-239.115Z" style="fill-rule:nonzero;"/>
            <path d="M550.136,2895.64c132.053,0 239.115,132.053 239.115,239.115l-0,1173.31c-0,132.053 -107.062,239.115 -239.115,239.115c-132.053,0 -239.115,-132.053 -239.115,-239.115l-0,-1173.31c-0,-132.053 107.062,-239.115 239.115,-239.115Z" style="fill-rule:nonzero;"/>
        </symbol>
        <symbol id="settings" viewBox="0 0 5000 5000">
            <path d="M2031.14,311.985c-41.439,0.026 -81.201,16.493 -110.485,45.783c-29.315,29.315 -45.782,69.077 -45.782,110.511l0,275.335c-59.302,21.379 -117.129,45.731 -174.003,72.949l-195.359,-195.359c-29.315,-29.289 -69.077,-45.756 -110.511,-45.756c-41.439,-0 -81.174,16.467 -110.485,45.756l-663.306,663.307c-29.289,29.315 -45.757,69.05 -45.757,110.484c0,41.465 16.468,81.201 45.757,110.512l194.763,194.737c-26.937,57.053 -50.668,115.137 -71.738,174.598l-275.957,0.026c-41.439,-0 -81.201,16.467 -110.511,45.782c-29.29,29.289 -45.757,69.051 -45.783,110.485l0,937.748c0.026,41.439 16.493,81.201 45.783,110.485c29.315,29.315 69.077,45.783 110.511,45.783l275.335,-0c21.354,59.301 45.731,117.129 72.949,174.003l-195.359,195.358c-29.289,29.315 -45.756,69.051 -45.756,110.512c-0,41.439 16.467,81.174 45.756,110.485l663.307,663.306c29.315,29.289 69.05,45.756 110.485,45.756c41.464,0 81.2,-16.467 110.511,-45.756l194.763,-194.737c57.027,26.937 115.137,50.694 174.599,71.738l-0,275.931c-0,41.439 16.467,81.201 45.782,110.511c29.289,29.289 69.05,45.757 110.485,45.757l937.748,-0c41.439,-0 81.201,-16.468 110.485,-45.757c29.315,-29.315 45.782,-69.077 45.782,-110.511l0,-275.336c59.302,-21.379 117.129,-45.73 174.003,-72.948l195.359,195.359c29.315,29.289 69.051,45.756 110.511,45.756c41.439,0 81.175,-16.467 110.485,-45.756l663.307,-663.307c29.289,-29.315 45.756,-69.05 45.756,-110.485c0,-41.464 -16.467,-81.201 -45.756,-110.511l-194.763,-194.737c26.936,-57.053 50.667,-115.137 71.737,-174.598l275.957,-0.026c41.439,-0 81.201,-16.467 110.485,-45.782c29.315,-29.29 45.783,-69.051 45.783,-110.485l-0,-937.749c-0,-41.439 -16.468,-81.201 -45.757,-110.485c-29.315,-29.315 -69.077,-45.782 -110.511,-45.782l-275.336,0c-21.353,-59.302 -45.73,-117.129 -72.948,-173.976l195.359,-195.359l-0,-0.026c29.289,-29.315 45.756,-69.05 45.756,-110.511c0,-41.439 -16.467,-81.175 -45.756,-110.485l-663.307,-663.307c-29.315,-29.289 -69.05,-45.756 -110.485,-45.756c-41.464,-0 -81.201,16.467 -110.511,45.756l-194.763,194.764c-57.027,-26.937 -115.137,-50.694 -174.599,-71.738l0,-275.957c0,-41.439 -16.467,-81.201 -45.782,-110.512c-29.289,-29.289 -69.051,-45.756 -110.485,-45.756l-937.748,-0.027Zm156.294,312.588l625.155,-0l-0,223.147c-0.026,34.045 11.09,67.184 31.641,94.357c20.577,27.169 49.427,46.867 82.207,56.123c116.613,32.83 229.248,79.182 335.16,137.968c29.703,16.416 63.904,22.749 97.508,18.019c33.58,-4.731 64.704,-20.267 88.692,-44.231l157.2,-157.201l442.31,442.311l-158.133,158.107l0.026,-0c-24.093,24.118 -39.656,55.45 -44.283,89.235c-4.627,33.787 1.913,68.17 18.639,97.871c59.405,105.574 106.296,217.846 139.802,334.254c9.41,32.572 29.133,61.189 56.226,81.558c27.092,20.369 60.051,31.383 93.966,31.383l221.903,0l0,625.155l-223.147,-0c-34.045,-0.026 -67.184,11.09 -94.357,31.641c-27.173,20.551 -46.868,49.427 -56.123,82.207c-32.83,116.613 -79.182,228.938 -137.969,334.85l0,0.025c-16.492,29.703 -22.852,63.982 -18.121,97.64c4.731,33.658 20.319,64.86 44.36,88.851l157.2,157.201l-442.31,442.31l-158.133,-158.107l0.025,-0c-24.118,-24.093 -55.476,-39.656 -89.235,-44.283c-33.787,-4.627 -68.17,1.913 -97.871,18.639c-105.574,59.405 -217.846,106.296 -334.254,139.802c-32.572,9.41 -61.189,29.133 -81.558,56.226c-20.371,27.092 -31.383,60.077 -31.383,93.966l-0,221.903l-625.155,0l0,-223.147c0,-34.045 -11.116,-67.184 -31.668,-94.357c-20.551,-27.173 -49.4,-46.868 -82.18,-56.123c-116.613,-32.83 -228.938,-79.182 -334.85,-137.969l-0.025,0c-29.703,-16.493 -63.982,-22.877 -97.64,-18.147c-33.658,4.757 -64.86,20.319 -88.878,44.36l-157.2,157.2l-442.31,-442.31l158.133,-158.107c24.093,-24.118 39.656,-55.45 44.283,-89.235c4.627,-33.787 -1.913,-68.17 -18.639,-97.871c-59.405,-105.574 -106.295,-217.846 -139.802,-334.254c-9.41,-32.572 -29.133,-61.189 -56.225,-81.558c-27.093,-20.371 -60.078,-31.384 -93.967,-31.384l-221.903,0l-0,-625.154l223.147,-0c34.045,0.026 67.184,-11.09 94.357,-31.641c27.17,-20.578 46.868,-49.428 56.123,-82.207c32.83,-116.613 79.182,-229.249 137.969,-335.161l-0,-0.026c16.415,-29.677 22.748,-63.877 18.018,-97.481c-4.731,-33.58 -20.267,-64.73 -44.257,-88.718l-157.2,-157.201l442.31,-442.31l158.133,158.107l-0.025,0.026c24.118,24.093 55.476,39.655 89.235,44.283c33.787,4.627 68.17,-1.913 97.871,-18.639c105.574,-59.406 217.846,-106.296 334.254,-139.802c32.572,-9.41 61.189,-29.134 81.558,-56.226c20.369,-27.092 31.383,-60.077 31.383,-93.966l0.007,-221.909Zm312.561,937.748c-516.04,0 -937.749,421.682 -937.749,937.748c0,516.067 421.683,937.749 937.749,937.749c516.066,-0 937.748,-421.682 937.748,-937.749c0,-516.066 -421.682,-937.748 -937.748,-937.748Zm-0,312.561c347.099,-0 625.154,278.029 625.154,625.154c0,347.1 -278.029,625.155 -625.154,625.155c-347.1,-0 -625.155,-278.029 -625.155,-625.155c0,-347.125 278.029,-625.154 625.155,-625.154Z" style="fill-rule:nonzero;"/>
            <!-- <path d="m529.15 269.38c-6.2617 0.003906-12.27 2.4922-16.695 6.918-4.4297 4.4297-6.918 10.438-6.918 16.699v41.605c-8.9609 3.2305-17.699 6.9102-26.293 11.023l-29.52-29.52c-4.4297-4.4258-10.438-6.9141-16.699-6.9141-6.2617 0-12.266 2.4883-16.695 6.9141l-100.23 100.23c-4.4258 4.4297-6.9141 10.434-6.9141 16.695 0 6.2656 2.4883 12.27 6.9141 16.699l29.43 29.426c-4.0703 8.6211-7.6562 17.398-10.84 26.383l-41.699 0.003906c-6.2617 0-12.27 2.4883-16.699 6.918-4.4258 4.4258-6.9141 10.434-6.918 16.695v141.7c0.003906 6.2617 2.4922 12.27 6.918 16.695 4.4297 4.4297 10.438 6.918 16.699 6.918h41.605c3.2266 8.9609 6.9102 17.699 11.023 26.293l-29.52 29.52c-4.4258 4.4297-6.9141 10.434-6.9141 16.699 0 6.2617 2.4883 12.266 6.9141 16.695l100.23 100.23c4.4297 4.4258 10.434 6.9141 16.695 6.9141 6.2656 0 12.27-2.4883 16.699-6.9141l29.43-29.426c8.6172 4.0703 17.398 7.6602 26.383 10.84v41.695c0 6.2617 2.4883 12.27 6.918 16.699 4.4258 4.4258 10.434 6.9141 16.695 6.9141h141.7c6.2617 0 12.27-2.4883 16.695-6.9141 4.4297-4.4297 6.918-10.438 6.918-16.699v-41.605c8.9609-3.2305 17.699-6.9102 26.293-11.023l29.52 29.52c4.4297 4.4258 10.434 6.9141 16.699 6.9141 6.2617 0 12.266-2.4883 16.695-6.9141l100.23-100.23c4.4258-4.4297 6.9141-10.434 6.9141-16.695 0-6.2656-2.4883-12.27-6.9141-16.699l-29.43-29.426c4.0703-8.6211 7.6562-17.398 10.84-26.383l41.699-0.003906c6.2617 0 12.27-2.4883 16.695-6.918 4.4297-4.4258 6.918-10.434 6.918-16.695v-141.7c0-6.2617-2.4883-12.27-6.9141-16.695-4.4297-4.4297-10.438-6.918-16.699-6.918h-41.605c-3.2266-8.9609-6.9102-17.699-11.023-26.289l29.52-29.52v-0.003907c4.4258-4.4297 6.9141-10.434 6.9141-16.699 0-6.2617-2.4883-12.266-6.9141-16.695l-100.23-100.23c-4.4297-4.4258-10.434-6.9141-16.695-6.9141-6.2656 0-12.27 2.4883-16.699 6.9141l-29.43 29.43c-8.6172-4.0703-17.398-7.6602-26.383-10.84v-41.699c0-6.2617-2.4883-12.27-6.918-16.699-4.4258-4.4258-10.434-6.9141-16.695-6.9141zm23.617 47.234h94.465v33.719c-0.003906 5.1445 1.6758 10.152 4.7812 14.258 3.1094 4.1055 7.4688 7.082 12.422 8.4805 17.621 4.9609 34.641 11.965 50.645 20.848 4.4883 2.4805 9.6562 3.4375 14.734 2.7227 5.0742-0.71484 9.7773-3.0625 13.402-6.6836l23.754-23.754 66.836 66.836-23.895 23.891h0.003907c-3.6406 3.6445-5.9922 8.3789-6.6914 13.484-0.69922 5.1055 0.28906 10.301 2.8164 14.789 8.9766 15.953 16.062 32.918 21.125 50.508 1.4219 4.9219 4.4023 9.2461 8.4961 12.324s9.0742 4.7422 14.199 4.7422h33.531v94.465h-33.719c-5.1445-0.003906-10.152 1.6758-14.258 4.7812s-7.082 7.4688-8.4805 12.422c-4.9609 17.621-11.965 34.594-20.848 50.598v0.003907c-2.4922 4.4883-3.4531 9.668-2.7383 14.754 0.71484 5.0859 3.0703 9.8008 6.7031 13.426l23.754 23.754-66.836 66.836-23.895-23.891h0.003906c-3.6445-3.6406-8.3828-5.9922-13.484-6.6914-5.1055-0.69922-10.301 0.28906-14.789 2.8164-15.953 8.9766-32.918 16.062-50.508 21.125-4.9219 1.4219-9.2461 4.4023-12.324 8.4961-3.0781 4.0938-4.7422 9.0781-4.7422 14.199v33.531h-94.465v-33.719c0-5.1445-1.6797-10.152-4.7852-14.258s-7.4648-7.082-12.418-8.4805c-17.621-4.9609-34.594-11.965-50.598-20.848h-0.003906c-4.4883-2.4922-9.668-3.457-14.754-2.7422-5.0859 0.71875-9.8008 3.0703-13.43 6.7031l-23.754 23.754-66.836-66.836 23.895-23.891c3.6406-3.6445 5.9922-8.3789 6.6914-13.484 0.69922-5.1055-0.28906-10.301-2.8164-14.789-8.9766-15.953-16.062-32.918-21.125-50.508-1.4219-4.9219-4.4023-9.2461-8.4961-12.324-4.0938-3.0781-9.0781-4.7422-14.199-4.7422h-33.531v-94.465h33.719c5.1445 0.003907 10.152-1.6758 14.258-4.7812 4.1055-3.1094 7.082-7.4688 8.4805-12.422 4.9609-17.621 11.965-34.641 20.848-50.645v-0.003906c2.4805-4.4844 3.4375-9.6523 2.7227-14.73-0.71484-5.0742-3.0625-9.7812-6.6875-13.406l-23.754-23.754 66.836-66.836 23.895 23.891-0.003906 0.003907c3.6445 3.6406 8.3828 5.9922 13.484 6.6914 5.1055 0.69922 10.301-0.28906 14.789-2.8164 15.953-8.9766 32.918-16.062 50.508-21.125 4.9219-1.4219 9.2461-4.4023 12.324-8.4961s4.7422-9.0781 4.7422-14.199zm47.23 141.7c-77.977 0-141.7 63.719-141.7 141.7s63.719 141.7 141.7 141.7 141.7-63.719 141.7-141.7-63.719-141.7-141.7-141.7zm0 47.23c52.449 0 94.465 42.012 94.465 94.465 0 52.449-42.012 94.465-94.465 94.465-52.449 0-94.465-42.012-94.465-94.465s42.012-94.465 94.465-94.465z"/> -->
        </symbol>
        <symbol id="search" viewBox="0 0 1200 1200">
            <path d="m552.37 292.59c-143.19 0-259.78 116.59-259.78 259.78 0 143.19 116.59 259.78 259.78 259.78 63.113 0 121.02-22.691 166.1-60.285l147.83 147.83c22.258 23.188 56.582-11.137 33.395-33.395l-147.83-147.83c37.594-45.07 60.285-102.98 60.285-166.1 0-143.19-116.59-259.78-259.78-259.78zm0 47.234c117.66 0 212.54 94.879 212.54 212.54 0 117.66-94.879 212.54-212.54 212.54-117.66 0-212.54-94.879-212.54-212.54 0-117.66 94.879-212.54 212.54-212.54z"/>
        </symbol>
        <!-- Music Icons -->
        <symbol id="note" viewBox="0 0 1200 1200">
            <path d="m1073.2 82.875c-8.9375-7.5-20.859-10.41-32.25-7.875l-600 150c-8.3203 2.0547-15.688 6.8945-20.871 13.719-5.1875 6.8203-7.8789 15.215-7.6289 23.781v593.25c-33.98-20.355-72.891-30.988-112.5-30.75-103.5 0-187.5 67.125-187.5 150s84 150 187.5 150 187.5-67.125 187.5-150v-458.25l525-131.25v320.25c-33.98-20.355-72.891-30.988-112.5-30.75-103.5 0-187.5 67.125-187.5 150s84 150 187.5 150 187.5-67.125 187.5-150v-712.5c0.0625-11.543-5.1953-22.469-14.25-29.625zm-773.25 967.12c-61.125 0-112.5-34.5-112.5-75s51.375-75 112.5-75 112.5 34.5 112.5 75-51.375 75-112.5 75zm187.5-610.5v-147.75l525-131.25v147.75zm412.5 460.5c-61.125 0-112.5-34.5-112.5-75s51.375-75 112.5-75 112.5 34.5 112.5 75-51.375 75-112.5 75z"/>
        </symbol>
        <symbol id="microphone" viewBox="0 0 1200 1200">
            <path d="m514.12 739.12-75 75c-7.043 7.0977-16.625 11.094-26.625 11.094s-19.582-3.9961-26.625-11.094c-7.0977-7.043-11.094-16.625-11.094-26.625s3.9961-19.582 11.094-26.625l75-75c9.5117-9.5117 23.375-13.227 36.371-9.7461 12.992 3.4805 23.145 13.633 26.625 26.625 3.4805 12.996-0.23438 26.859-9.7461 36.371zm610.88-326.62c0.066406 87.281-33.684 171.2-94.168 234.12-60.48 62.93-142.99 99.98-230.21 103.38l-436.88 343.12c-28.809 22.445-64.812 33.609-101.27 31.402-36.453-2.2109-70.848-17.641-96.734-43.402l-46.875-46.875c-25.762-25.887-41.191-60.281-43.402-96.734-2.207-36.453 8.957-72.457 31.402-101.27l343.12-436.88c1.1523-59.242 17.879-117.14 48.496-167.87 30.621-50.73 74.055-92.508 125.94-121.13 51.883-28.621 110.39-43.086 169.63-41.934 89.512 1.7422 174.66 38.969 236.73 103.49 62.062 64.523 95.953 151.06 94.211 240.57zm-322.88 262.5c51.426-2.9336 100.85-20.93 142.12-51.75l-366.75-367.5c-31.09 41.184-49.352 90.621-52.5 142.12zm-70.875 34.875-240.38-241.12-325.12 412.5c-11.223 14.402-16.805 32.406-15.699 50.633 1.1016 18.227 8.8203 35.426 21.699 48.367l46.875 46.875c12.992 12.824 30.211 20.473 48.438 21.508 18.227 1.0352 36.203-4.6133 50.562-15.883zm318.75-297.38c-0.14062-65.156-24.504-127.93-68.355-176.12-43.855-48.188-104.06-78.344-168.91-84.609-64.852-6.2617-129.72 11.82-181.98 50.727l366.75 366.75c33.926-45.23 52.34-100.21 52.5-156.75z"/>
        </symbol>
        <!-- Other Icons -->
        <symbol id="playlist-add" viewBox="0 0 1200 1200">
            <path d="m75 187.5c0-9.9453 3.9492-19.484 10.984-26.516 7.0312-7.0352 16.57-10.984 26.516-10.984h825c13.398 0 25.777 7.1484 32.477 18.75 6.6992 11.602 6.6992 25.898 0 37.5-6.6992 11.602-19.078 18.75-32.477 18.75h-825c-9.9453 0-19.484-3.9492-26.516-10.984-7.0352-7.0312-10.984-16.57-10.984-26.516zm37.5 375h825c13.398 0 25.777-7.1484 32.477-18.75 6.6992-11.602 6.6992-25.898 0-37.5-6.6992-11.602-19.078-18.75-32.477-18.75h-825c-13.398 0-25.777 7.1484-32.477 18.75-6.6992 11.602-6.6992 25.898 0 37.5 6.6992 11.602 19.078 18.75 32.477 18.75zm487.5 262.5h-487.5c-13.398 0-25.777 7.1484-32.477 18.75-6.6992 11.602-6.6992 25.898 0 37.5 6.6992 11.602 19.078 18.75 32.477 18.75h487.5c13.398 0 25.777-7.1484 32.477-18.75 6.6992-11.602 6.6992-25.898 0-37.5-6.6992-11.602-19.078-18.75-32.477-18.75zm487.5 0h-112.5v-112.5c0-13.398-7.1484-25.777-18.75-32.477-11.602-6.6992-25.898-6.6992-37.5 0-11.602 6.6992-18.75 19.078-18.75 32.477v112.5h-112.5c-13.398 0-25.777 7.1484-32.477 18.75-6.6992 11.602-6.6992 25.898 0 37.5 6.6992 11.602 19.078 18.75 32.477 18.75h112.5v112.5c0 13.398 7.1484 25.777 18.75 32.477 11.602 6.6992 25.898 6.6992 37.5 0 11.602-6.6992 18.75-19.078 18.75-32.477v-112.5h112.5c13.398 0 25.777-7.1484 32.477-18.75 6.6992-11.602 6.6992-25.898 0-37.5-6.6992-11.602-19.078-18.75-32.477-18.75z"/>
        </symbol>
        <!-- Unused Icons -->
        <symbol id="cross" viewBox="0 0 1200 1200">
            <path d="m316.38 292.71c-6.3008 0-12.34 2.5195-16.773 6.9961-4.4336 4.4766-6.8945 10.539-6.8398 16.84 0.058594 6.2969 2.6289 12.312 7.1445 16.707l266.7 266.7-266.7 266.7v0.003906c-4.582 4.3945-7.1992 10.449-7.2656 16.797-0.066406 6.3516 2.4258 12.457 6.9141 16.949 4.4922 4.4883 10.598 6.9805 16.949 6.9141 6.3477-0.066407 12.402-2.6836 16.797-7.2695l266.7-266.7 266.7 266.7c4.3984 4.5859 10.453 7.2031 16.801 7.2695 6.3477 0.066406 12.457-2.4258 16.949-6.9141 4.4883-4.4922 6.9805-10.598 6.9141-16.949-0.066406-6.3477-2.6836-12.402-7.2695-16.797l-266.7-266.7 266.7-266.7c4.5742-4.4492 7.1562-10.559 7.1562-16.945-0.003906-6.3828-2.5898-12.492-7.1719-16.938-4.5781-4.4453-10.766-6.8477-17.145-6.6602-6.1367 0.18359-11.957 2.7461-16.238 7.1484l-266.7 266.7-266.7-266.7c-4.4453-4.5703-10.551-7.1484-16.926-7.1484z" fill-rule="evenodd"/>
        </symbol>
        <symbol id="plus" viewBox="0 0 1200 1200">
            <path d="m599.63 269.05c-6.2539 0.097656-12.215 2.6758-16.574 7.1641-4.3594 4.4883-6.7578 10.52-6.6719 16.777v283.39l-283.39-0.003906c-6.3203-0.085937-12.41 2.3633-16.91 6.8008-4.4961 4.4414-7.0312 10.496-7.0312 16.816 0 6.3203 2.5352 12.375 7.0312 16.816 4.5 4.4375 10.59 6.8867 16.91 6.8008h283.39v283.39-0.003906c-0.089844 6.3242 2.3594 12.414 6.7969 16.918 4.4375 4.5 10.496 7.0352 16.816 7.0352 6.3242 0 12.383-2.5352 16.82-7.0352 4.4375-4.5039 6.8867-10.594 6.7969-16.918v-283.39h283.39v0.003906c6.3164 0.085938 12.41-2.3633 16.91-6.8008 4.4961-4.4414 7.0312-10.496 7.0312-16.816 0-6.3203-2.5352-12.375-7.0312-16.816-4.5-4.4375-10.594-6.8867-16.91-6.8008h-283.39v-283.39 0.003906c0.089843-6.3828-2.4141-12.531-6.9297-17.043-4.5195-4.5078-10.672-6.9961-17.055-6.8984z" fill-rule="evenodd"/>
        </symbol>
        <symbol id="minus" viewBox="0 0 1200 1200">
            <path d="m292.99 576.39c-6.3242-0.097657-12.422 2.3516-16.93 6.7891-4.5039 4.4375-7.043 10.5-7.043 16.824 0 6.3281 2.5391 12.387 7.043 16.828 4.5078 4.4375 10.605 6.8828 16.93 6.7891h614.02c6.3242 0.09375 12.422-2.3516 16.93-6.7891 4.5039-4.4414 7.043-10.5 7.043-16.828 0-6.3242-2.5391-12.387-7.043-16.824-4.5078-4.4375-10.605-6.8867-16.93-6.7891z" fill-rule="evenodd"/>
        </symbol>
        <symbol id="circle-cross" viewBox="0 0 1200 1200">
            <path d="m600 75c-139.24 0-272.77 55.312-371.23 153.77s-153.77 231.99-153.77 371.23 55.312 272.77 153.77 371.23 231.99 153.77 371.23 153.77 272.77-55.312 371.23-153.77 153.77-231.99 153.77-371.23c0-92.156-24.258-182.69-70.336-262.5-46.078-79.809-112.36-146.09-192.16-192.16-79.809-46.078-170.34-70.336-262.5-70.336zm0 975c-119.35 0-233.81-47.41-318.2-131.8s-131.8-198.85-131.8-318.2 47.41-233.81 131.8-318.2 198.85-131.8 318.2-131.8 233.81 47.41 318.2 131.8 131.8 198.85 131.8 318.2-47.41 233.81-131.8 318.2-198.85 131.8-318.2 131.8zm214.12-610.88-161.25 160.88 161.25 160.88c7.0977 7.043 11.094 16.625 11.094 26.625s-3.9961 19.582-11.094 26.625c-7.043 7.0977-16.625 11.094-26.625 11.094s-19.582-3.9961-26.625-11.094l-160.88-161.25-160.88 161.25c-7.043 7.0977-16.625 11.094-26.625 11.094s-19.582-3.9961-26.625-11.094c-7.0977-7.043-11.094-16.625-11.094-26.625s3.9961-19.582 11.094-26.625l161.25-160.88-161.25-160.88c-9.5117-9.5117-13.227-23.375-9.7461-36.371 3.4805-12.992 13.633-23.145 26.625-26.625 12.996-3.4805 26.859 0.23438 36.371 9.7461l160.88 161.25 160.88-161.25c9.5117-9.5117 23.375-13.227 36.371-9.7461 12.992 3.4805 23.145 13.633 26.625 26.625 3.4805 12.996-0.23438 26.859-9.7461 36.371z"/>
        </symbol>
        <symbol id="circle-plus" viewBox="0 0 1200 1200">
            <path d="m600 75c-139.24 0-272.77 55.312-371.23 153.77s-153.77 231.99-153.77 371.23 55.312 272.77 153.77 371.23 231.99 153.77 371.23 153.77 272.77-55.312 371.23-153.77 153.77-231.99 153.77-371.23c0-92.156-24.258-182.69-70.336-262.5-46.078-79.809-112.36-146.09-192.16-192.16-79.809-46.078-170.34-70.336-262.5-70.336zm0 975c-119.35 0-233.81-47.41-318.2-131.8s-131.8-198.85-131.8-318.2 47.41-233.81 131.8-318.2 198.85-131.8 318.2-131.8 233.81 47.41 318.2 131.8 131.8 198.85 131.8 318.2-47.41 233.81-131.8 318.2-198.85 131.8-318.2 131.8zm262.5-450c0 9.9453-3.9492 19.484-10.984 26.516-7.0312 7.0352-16.57 10.984-26.516 10.984h-187.5v187.5c0 13.398-7.1484 25.777-18.75 32.477-11.602 6.6992-25.898 6.6992-37.5 0-11.602-6.6992-18.75-19.078-18.75-32.477v-187.5h-187.5c-13.398 0-25.777-7.1484-32.477-18.75-6.6992-11.602-6.6992-25.898 0-37.5 6.6992-11.602 19.078-18.75 32.477-18.75h187.5v-187.5c0-13.398 7.1484-25.777 18.75-32.477 11.602-6.6992 25.898-6.6992 37.5 0 11.602 6.6992 18.75 19.078 18.75 32.477v187.5h187.5c9.9453 0 19.484 3.9492 26.516 10.984 7.0352 7.0312 10.984 16.57 10.984 26.516z"/>
        </symbol>
        <symbol id="circle-minus" viewBox="0 0 1200 1200">
            <path d="m600 75c-139.24 0-272.77 55.312-371.23 153.77s-153.77 231.99-153.77 371.23 55.312 272.77 153.77 371.23 231.99 153.77 371.23 153.77 272.77-55.312 371.23-153.77 153.77-231.99 153.77-371.23c0-92.156-24.258-182.69-70.336-262.5-46.078-79.809-112.36-146.09-192.16-192.16-79.809-46.078-170.34-70.336-262.5-70.336zm0 975c-119.35 0-233.81-47.41-318.2-131.8s-131.8-198.85-131.8-318.2 47.41-233.81 131.8-318.2 198.85-131.8 318.2-131.8 233.81 47.41 318.2 131.8 131.8 198.85 131.8 318.2-47.41 233.81-131.8 318.2-198.85 131.8-318.2 131.8zm262.5-450c0 9.9453-3.9492 19.484-10.984 26.516-7.0312 7.0352-16.57 10.984-26.516 10.984h-450c-13.398 0-25.777-7.1484-32.477-18.75-6.6992-11.602-6.6992-25.898 0-37.5 6.6992-11.602 19.078-18.75 32.477-18.75h450c9.9453 0 19.484 3.9492 26.516 10.984 7.0352 7.0312 10.984 16.57 10.984 26.516z"/>
        </symbol>
        <symbol id="circle-menu" viewBox="0 0 1200 1200">
            <path d="m600 75c-139.24 0-272.77 55.312-371.23 153.77s-153.77 231.99-153.77 371.23 55.312 272.77 153.77 371.23 231.99 153.77 371.23 153.77 272.77-55.312 371.23-153.77 153.77-231.99 153.77-371.23c0-92.156-24.258-182.69-70.336-262.5-46.078-79.809-112.36-146.09-192.16-192.16-79.809-46.078-170.34-70.336-262.5-70.336zm0 975c-119.35 0-233.81-47.41-318.2-131.8s-131.8-198.85-131.8-318.2 47.41-233.81 131.8-318.2 198.85-131.8 318.2-131.8 233.81 47.41 318.2 131.8 131.8 198.85 131.8 318.2-47.41 233.81-131.8 318.2-198.85 131.8-318.2 131.8zm262.5-450c0 9.9453-3.9492 19.484-10.984 26.516-7.0312 7.0352-16.57 10.984-26.516 10.984h-450c-13.398 0-25.777-7.1484-32.477-18.75-6.6992-11.602-6.6992-25.898 0-37.5 6.6992-11.602 19.078-18.75 32.477-18.75h450c9.9453 0 19.484 3.9492 26.516 10.984 7.0352 7.0312 10.984 16.57 10.984 26.516zm0-187.5c0 9.9453-3.9492 19.484-10.984 26.516-7.0312 7.0352-16.57 10.984-26.516 10.984h-450c-13.398 0-25.777-7.1484-32.477-18.75-6.6992-11.602-6.6992-25.898 0-37.5 6.6992-11.602 19.078-18.75 32.477-18.75h450c9.9453 0 19.484 3.9492 26.516 10.984 7.0352 7.0312 10.984 16.57 10.984 26.516zm0 375c0 9.9453-3.9492 19.484-10.984 26.516-7.0312 7.0352-16.57 10.984-26.516 10.984h-450c-13.398 0-25.777-7.1484-32.477-18.75-6.6992-11.602-6.6992-25.898 0-37.5 6.6992-11.602 19.078-18.75 32.477-18.75h450c9.9453 0 19.484 3.9492 26.516 10.984 7.0352 7.0312 10.984 16.57 10.984 26.516z"/>
        </symbol>
        <symbol id="circle-love" viewBox="0 0 1200 1200">
            <path d="m600 75c-139.24 0-272.77 55.312-371.23 153.77s-153.77 231.99-153.77 371.23 55.312 272.77 153.77 371.23 231.99 153.77 371.23 153.77 272.77-55.312 371.23-153.77 153.77-231.99 153.77-371.23c0-92.156-24.258-182.69-70.336-262.5-46.078-79.809-112.36-146.09-192.16-192.16-79.809-46.078-170.34-70.336-262.5-70.336zm0 975c-119.35 0-233.81-47.41-318.2-131.8s-131.8-198.85-131.8-318.2 47.41-233.81 131.8-318.2 198.85-131.8 318.2-131.8 233.81 47.41 318.2 131.8 131.8 198.85 131.8 318.2-47.41 233.81-131.8 318.2-198.85 131.8-318.2 131.8zm112.5-712.5c-40.605-0.21875-80.148 12.961-112.5 37.5-32.352-24.539-71.895-37.719-112.5-37.5-49.727 0-97.418 19.754-132.58 54.918-35.164 35.164-54.918 82.855-54.918 132.58 0 207 270 363.38 281.25 370.12 5.6992 3.293 12.168 5.0234 18.75 5.0234s13.051-1.7305 18.75-5.0234c11.25-6.75 281.25-163.12 281.25-370.12 0-49.727-19.754-97.418-54.918-132.58-35.164-35.164-82.855-54.918-132.58-54.918zm-112.5 480.75c-57-37.5-225-156.75-225-293.25-0.16016-30.719 12.246-60.172 34.344-81.512 22.098-21.34 51.961-32.719 82.656-31.488 30.699 1.2305 59.555 14.961 79.875 38 7.1172 8.0703 17.363 12.695 28.125 12.695s21.008-4.625 28.125-12.695c20.32-23.039 49.176-36.77 79.875-38 30.695-1.2305 60.559 10.148 82.656 31.488 22.098 21.34 34.504 50.793 34.344 81.512 0 136.5-168 256.5-225 293.25z"/>
        </symbol>
        <symbol id="circle-star" viewBox="0 0 1200 1200">
            <path d="m600 75c-139.24 0-272.77 55.312-371.23 153.77s-153.77 231.99-153.77 371.23 55.312 272.77 153.77 371.23 231.99 153.77 371.23 153.77 272.77-55.312 371.23-153.77 153.77-231.99 153.77-371.23c0-92.156-24.258-182.69-70.336-262.5-46.078-79.809-112.36-146.09-192.16-192.16-79.809-46.078-170.34-70.336-262.5-70.336zm0 975c-119.35 0-233.81-47.41-318.2-131.8s-131.8-198.85-131.8-318.2 47.41-233.81 131.8-318.2 198.85-131.8 318.2-131.8 233.81 47.41 318.2 131.8 131.8 198.85 131.8 318.2-47.41 233.81-131.8 318.2-198.85 131.8-318.2 131.8zm256.12-562.5h-168.38l-50.25-161.62c-3.3086-10.066-10.723-18.266-20.41-22.566-9.6875-4.3008-20.742-4.3008-30.43 0-9.6875 4.3008-17.102 12.5-20.41 22.566l-54 161.62h-168.38c-10.52 0.10547-20.508 4.6211-27.535 12.449s-10.441 18.25-9.4141 28.715c1.0312 10.469 6.4102 20.023 14.824 26.336l136.12 99.375-51.75 160.12c-3.1992 10.047-2.0195 20.977 3.25 30.113 5.2695 9.1328 14.141 15.625 24.438 17.891 10.301 2.2617 21.074 0.082032 29.688-6.0039l136.5-100.12 136.5 99c6.3867 4.6055 14.062 7.0859 21.938 7.0859s15.551-2.4805 21.938-7.0859c6.3984-4.6758 11.152-11.258 13.578-18.805 2.4258-7.5469 2.3984-15.668-0.078125-23.195l-51.75-160.12 136.12-99.375c8.4141-6.3125 13.793-15.867 14.824-26.336 1.0273-10.465-2.3867-20.887-9.4141-28.715s-17.016-12.344-27.535-12.449zm-181.12 121.12c-6.3242 4.6523-11.027 11.172-13.449 18.641-2.4258 7.4648-2.4414 15.508-0.050781 22.984l24.75 75-64.875-47.25c-6.4219-4.6914-14.172-7.2227-22.125-7.2227s-15.703 2.5312-22.125 7.2227l-64.875 47.25 24.75-75c2.5508-7.3281 2.7695-15.266 0.61719-22.719-2.1484-7.457-6.5547-14.062-12.617-18.906l-66-46.125h80.625c7.9531-0.03125 15.691-2.5898 22.098-7.3086 6.4023-4.7188 11.141-11.352 13.527-18.941l24.75-75 24.75 75c2.3867 7.5898 7.125 14.223 13.527 18.941 6.4062 4.7188 14.145 7.2773 22.098 7.3086h80.625z"/>
        </symbol>
        <symbol id="equalizer" viewBox="0 0 1200 1200">
            <path d="m1012.5 269.25v-156.75c0-13.398-7.1484-25.777-18.75-32.477-11.602-6.6992-25.898-6.6992-37.5 0-11.602 6.6992-18.75 19.078-18.75 32.477v156.75c-33.633 11.891-59.633 39.027-70.074 73.137-10.441 34.113-4.0859 71.152 17.129 99.832 21.215 28.68 54.773 45.598 90.445 45.598s69.23-16.918 90.445-45.598c21.215-28.68 27.57-65.719 17.129-99.832-10.441-34.109-36.441-61.246-70.074-73.137zm-37.5 143.25c-9.9453 0-19.484-3.9492-26.516-10.984-7.0352-7.0312-10.984-16.57-10.984-26.516s3.9492-19.484 10.984-26.516c7.0312-7.0352 16.57-10.984 26.516-10.984s19.484 3.9492 26.516 10.984c7.0352 7.0312 10.984 16.57 10.984 26.516s-3.9492 19.484-10.984 26.516c-7.0312 7.0352-16.57 10.984-26.516 10.984zm-712.5-143.25v-156.75c0-13.398-7.1484-25.777-18.75-32.477-11.602-6.6992-25.898-6.6992-37.5 0-11.602 6.6992-18.75 19.078-18.75 32.477v156.75c-33.633 11.891-59.633 39.027-70.074 73.137-10.441 34.113-4.0859 71.152 17.129 99.832 21.215 28.68 54.773 45.598 90.445 45.598s69.23-16.918 90.445-45.598c21.215-28.68 27.57-65.719 17.129-99.832-10.441-34.109-36.441-61.246-70.074-73.137zm-37.5 143.25c-9.9453 0-19.484-3.9492-26.516-10.984-7.0352-7.0312-10.984-16.57-10.984-26.516s3.9492-19.484 10.984-26.516c7.0312-7.0352 16.57-10.984 26.516-10.984s19.484 3.9492 26.516 10.984c7.0352 7.0312 10.984 16.57 10.984 26.516s-3.9492 19.484-10.984 26.516c-7.0312 7.0352-16.57 10.984-26.516 10.984zm412.5 231.75v-531.75c0-13.398-7.1484-25.777-18.75-32.477-11.602-6.6992-25.898-6.6992-37.5 0-11.602 6.6992-18.75 19.078-18.75 32.477v531.75c-33.633 11.891-59.633 39.027-70.074 73.137-10.441 34.113-4.0859 71.152 17.129 99.832 21.215 28.68 54.773 45.598 90.445 45.598s69.23-16.918 90.445-45.598c21.215-28.68 27.57-65.719 17.129-99.832-10.441-34.109-36.441-61.246-70.074-73.137zm-37.5 143.25c-9.9453 0-19.484-3.9492-26.516-10.984-7.0352-7.0312-10.984-16.57-10.984-26.516s3.9492-19.484 10.984-26.516c7.0312-7.0352 16.57-10.984 26.516-10.984s19.484 3.9492 26.516 10.984c7.0352 7.0312 10.984 16.57 10.984 26.516s-3.9492 19.484-10.984 26.516c-7.0312 7.0352-16.57 10.984-26.516 10.984zm-337.5-187.5v487.5c0 13.398-7.1484 25.777-18.75 32.477-11.602 6.6992-25.898 6.6992-37.5 0-11.602-6.6992-18.75-19.078-18.75-32.477v-487.5c0-13.398 7.1484-25.777 18.75-32.477 11.602-6.6992 25.898-6.6992 37.5 0 11.602 6.6992 18.75 19.078 18.75 32.477zm375 375v112.5c0 13.398-7.1484 25.777-18.75 32.477-11.602 6.6992-25.898 6.6992-37.5 0-11.602-6.6992-18.75-19.078-18.75-32.477v-112.5c0-13.398 7.1484-25.777 18.75-32.477 11.602-6.6992 25.898-6.6992 37.5 0 11.602 6.6992 18.75 19.078 18.75 32.477zm375-375v487.5c0 13.398-7.1484 25.777-18.75 32.477-11.602 6.6992-25.898 6.6992-37.5 0-11.602-6.6992-18.75-19.078-18.75-32.477v-487.5c0-13.398 7.1484-25.777 18.75-32.477 11.602-6.6992 25.898-6.6992 37.5 0 11.602 6.6992 18.75 19.078 18.75 32.477z"/>
        </symbol>
        <symbol id="headphones" viewBox="0 0 1200 1200">
            <path d="m600 75c-139.24 0-272.77 55.312-371.23 153.77s-153.77 231.99-153.77 371.23v412.5c0 29.836 11.852 58.453 32.949 79.551 21.098 21.098 49.715 32.949 79.551 32.949h150c29.836 0 58.453-11.852 79.551-32.949 21.098-21.098 32.949-49.715 32.949-79.551v-225c0-29.836-11.852-58.453-32.949-79.551-21.098-21.098-49.715-32.949-79.551-32.949h-187.5v-75c0-119.35 47.41-233.81 131.8-318.2s198.85-131.8 318.2-131.8 233.81 47.41 318.2 131.8 131.8 198.85 131.8 318.2v75h-187.5c-29.836 0-58.453 11.852-79.551 32.949-21.098 21.098-32.949 49.715-32.949 79.551v225c0 29.836 11.852 58.453 32.949 79.551 21.098 21.098 49.715 32.949 79.551 32.949h150c29.836 0 58.453-11.852 79.551-32.949 21.098-21.098 32.949-49.715 32.949-79.551v-412.5c0-92.156-24.258-182.69-70.336-262.5-46.078-79.809-112.36-146.09-192.16-192.16-79.809-46.078-170.34-70.336-262.5-70.336zm-262.5 675c9.9453 0 19.484 3.9492 26.516 10.984 7.0352 7.0312 10.984 16.57 10.984 26.516v225c0 9.9453-3.9492 19.484-10.984 26.516-7.0312 7.0352-16.57 10.984-26.516 10.984h-150c-9.9453 0-19.484-3.9492-26.516-10.984-7.0352-7.0312-10.984-16.57-10.984-26.516v-262.5zm712.5 262.5c0 9.9453-3.9492 19.484-10.984 26.516-7.0312 7.0352-16.57 10.984-26.516 10.984h-150c-9.9453 0-19.484-3.9492-26.516-10.984-7.0352-7.0312-10.984-16.57-10.984-26.516v-225c0-9.9453 3.9492-19.484 10.984-26.516 7.0312-7.0352 16.57-10.984 26.516-10.984h187.5z"/>
        </symbol>
        <symbol id="speaker" viewBox="0 0 1200 1200">
            <path d="m862.5 75h-525c-29.836 0-58.453 11.852-79.551 32.949-21.098 21.098-32.949 49.715-32.949 79.551v825c0 29.836 11.852 58.453 32.949 79.551 21.098 21.098 49.715 32.949 79.551 32.949h525c29.836 0 58.453-11.852 79.551-32.949 21.098-21.098 32.949-49.715 32.949-79.551v-825c0-29.836-11.852-58.453-32.949-79.551-21.098-21.098-49.715-32.949-79.551-32.949zm37.5 937.5c0 9.9453-3.9492 19.484-10.984 26.516-7.0312 7.0352-16.57 10.984-26.516 10.984h-525c-9.9453 0-19.484-3.9492-26.516-10.984-7.0352-7.0312-10.984-16.57-10.984-26.516v-825c0-9.9453 3.9492-19.484 10.984-26.516 7.0312-7.0352 16.57-10.984 26.516-10.984h525c9.9453 0 19.484 3.9492 26.516 10.984 7.0352 7.0312 10.984 16.57 10.984 26.516zm-300-487.5c-59.672 0-116.9 23.707-159.1 65.902-42.195 42.195-65.902 99.426-65.902 159.1s23.707 116.9 65.902 159.1c42.195 42.195 99.426 65.902 159.1 65.902s116.9-23.707 159.1-65.902c42.195-42.195 65.902-99.426 65.902-159.1s-23.707-116.9-65.902-159.1c-42.195-42.195-99.426-65.902-159.1-65.902zm0 375c-39.781 0-77.938-15.805-106.07-43.934s-43.934-66.285-43.934-106.07 15.805-77.938 43.934-106.07 66.285-43.934 106.07-43.934 77.938 15.805 106.07 43.934 43.934 66.285 43.934 106.07-15.805 77.938-43.934 106.07-66.285 43.934-106.07 43.934zm0-450c29.836 0 58.453-11.852 79.551-32.949 21.098-21.098 32.949-49.715 32.949-79.551s-11.852-58.453-32.949-79.551c-21.098-21.098-49.715-32.949-79.551-32.949s-58.453 11.852-79.551 32.949c-21.098 21.098-32.949 49.715-32.949 79.551s11.852 58.453 32.949 79.551c21.098 21.098 49.715 32.949 79.551 32.949zm0-150c9.9453 0 19.484 3.9492 26.516 10.984 7.0352 7.0312 10.984 16.57 10.984 26.516s-3.9492 19.484-10.984 26.516c-7.0312 7.0352-16.57 10.984-26.516 10.984s-19.484-3.9492-26.516-10.984c-7.0352-7.0312-10.984-16.57-10.984-26.516s3.9492-19.484 10.984-26.516c7.0312-7.0352 16.57-10.984 26.516-10.984zm37.5 450c0 9.9453-3.9492 19.484-10.984 26.516-7.0312 7.0352-16.57 10.984-26.516 10.984s-19.484-3.9492-26.516-10.984c-7.0352-7.0312-10.984-16.57-10.984-26.516s3.9492-19.484 10.984-26.516c7.0312-7.0352 16.57-10.984 26.516-10.984s19.484 3.9492 26.516 10.984c7.0352 7.0312 10.984 16.57 10.984 26.516z"/>
        </symbol>
        <symbol id="image" viewBox="0 0 1200 1200">
            <path d="m1012.5 75h-825c-29.836 0-58.453 11.852-79.551 32.949-21.098 21.098-32.949 49.715-32.949 79.551v825c0 29.836 11.852 58.453 32.949 79.551 21.098 21.098 49.715 32.949 79.551 32.949h825c29.836 0 58.453-11.852 79.551-32.949 21.098-21.098 32.949-49.715 32.949-79.551v-825c0-29.836-11.852-58.453-32.949-79.551-21.098-21.098-49.715-32.949-79.551-32.949zm-825 75h825c9.9453 0 19.484 3.9492 26.516 10.984 7.0352 7.0312 10.984 16.57 10.984 26.516v622.12l-198.38-198.75c-7.043-7.0977-16.625-11.094-26.625-11.094s-19.582 3.9961-26.625 11.094l-123.38 123.75-198.38-198.75c-7.043-7.0977-16.625-11.094-26.625-11.094s-19.582 3.9961-26.625 11.094l-273.38 273.75v-622.12c0-9.9453 3.9492-19.484 10.984-26.516 7.0312-7.0352 16.57-10.984 26.516-10.984zm825 900h-825c-9.9453 0-19.484-3.9492-26.516-10.984-7.0352-7.0312-10.984-16.57-10.984-26.516v-97.125l300-300 310.88 311.25c7.043 7.0977 16.625 11.094 26.625 11.094s19.582-3.9961 26.625-11.094c7.0977-7.043 11.094-16.625 11.094-26.625s-3.9961-19.582-11.094-26.625l-86.25-85.875 97.125-97.125 225 225v97.125c0 9.9453-3.9492 19.484-10.984 26.516-7.0312 7.0352-16.57 10.984-26.516 10.984zm-337.5-562.5c29.836 0 58.453-11.852 79.551-32.949 21.098-21.098 32.949-49.715 32.949-79.551s-11.852-58.453-32.949-79.551c-21.098-21.098-49.715-32.949-79.551-32.949s-58.453 11.852-79.551 32.949c-21.098 21.098-32.949 49.715-32.949 79.551s11.852 58.453 32.949 79.551c21.098 21.098 49.715 32.949 79.551 32.949zm0-150c9.9453 0 19.484 3.9492 26.516 10.984 7.0352 7.0312 10.984 16.57 10.984 26.516s-3.9492 19.484-10.984 26.516c-7.0312 7.0352-16.57 10.984-26.516 10.984s-19.484-3.9492-26.516-10.984c-7.0352-7.0312-10.984-16.57-10.984-26.516s3.9492-19.484 10.984-26.516c7.0312-7.0352 16.57-10.984 26.516-10.984z"/>
        </symbol>
        <symbol id="video" viewBox="0 0 1200 1200">
            <path d="m1012.5 75h-825c-29.836 0-58.453 11.852-79.551 32.949-21.098 21.098-32.949 49.715-32.949 79.551v825c0 29.836 11.852 58.453 32.949 79.551 21.098 21.098 49.715 32.949 79.551 32.949h825c29.836 0 58.453-11.852 79.551-32.949 21.098-21.098 32.949-49.715 32.949-79.551v-825c0-29.836-11.852-58.453-32.949-79.551-21.098-21.098-49.715-32.949-79.551-32.949zm37.5 112.5v75h-150v-112.5h112.5c9.9453 0 19.484 3.9492 26.516 10.984 7.0352 7.0312 10.984 16.57 10.984 26.516zm-487.5 750v112.5h-187.5v-112.5zm75 0h187.5v112.5h-187.5zm-487.5-75v-525h900v525zm487.5-600v-112.5h187.5v112.5zm-75 0h-187.5v-112.5h187.5zm-375-112.5h112.5v112.5h-150v-75c0-9.9453 3.9492-19.484 10.984-26.516 7.0312-7.0352 16.57-10.984 26.516-10.984zm-37.5 862.5v-75h150v112.5h-112.5c-9.9453 0-19.484-3.9492-26.516-10.984-7.0352-7.0312-10.984-16.57-10.984-26.516zm862.5 37.5h-112.5v-112.5h150v75c0 9.9453-3.9492 19.484-10.984 26.516-7.0312 7.0352-16.57 10.984-26.516 10.984zm-256.12-513.75-191.62-119.62c-11.402-6.582-24.336-10.047-37.5-10.047s-26.098 3.4648-37.5 10.047c-11.445 6.6094-20.941 16.121-27.527 27.582-6.5859 11.457-10.023 24.453-9.9727 37.668v240c0.054688 17.906 6.5117 35.207 18.211 48.766 11.695 13.559 27.859 22.484 45.566 25.164 17.707 2.6797 35.785-1.0625 50.973-10.555l191.62-119.62c22.066-13.676 35.492-37.789 35.492-63.75s-13.426-50.074-35.492-63.75zm-231.38 183.75v-240l191.62 120z"/>
        </symbol>
        <symbol id="podcast" viewBox="0 0 1200 1200">
            <path d="m750 600c0.12109-37.625-13.902-73.922-39.289-101.7-25.387-27.77-60.281-44.984-97.766-48.23-37.488-3.2461-74.824 7.7109-104.61 30.703-29.781 22.996-49.836 56.34-56.184 93.426s1.4727 75.207 21.91 106.8c20.441 31.59 52.008 54.344 88.438 63.75v342.75c0 13.398 7.1484 25.777 18.75 32.477 11.602 6.6992 25.898 6.6992 37.5 0 11.602-6.6992 18.75-19.078 18.75-32.477v-342.75c32.117-8.293 60.582-26.996 80.938-53.188s31.453-58.391 31.562-91.562zm-150 75c-19.891 0-38.969-7.9023-53.031-21.969-14.066-14.062-21.969-33.141-21.969-53.031s7.9023-38.969 21.969-53.031c14.062-14.066 33.141-21.969 53.031-21.969s38.969 7.9023 53.031 21.969c14.066 14.062 21.969 33.141 21.969 53.031s-7.9023 38.969-21.969 53.031c-14.062 14.066-33.141 21.969-53.031 21.969zm262.5-75c0.019531-61.719-21.711-121.47-61.371-168.76-39.66-47.289-94.715-79.094-155.49-89.824-60.781-10.727-123.39 0.30078-176.85 31.152-53.453 30.852-94.328 79.551-115.45 137.55-21.113 57.992-21.121 121.57-0.015625 179.57 21.109 57.996 61.977 106.7 115.43 137.56 8.5781 4.9453 14.852 13.086 17.449 22.641 2.6016 9.5547 1.3164 19.75-3.5742 28.359-4.9492 8.6797-13.156 15.023-22.801 17.629-9.6445 2.6055-19.93 1.2539-28.574-3.7539-64.34-37.148-114.63-94.488-143.06-163.13-28.434-68.641-33.422-144.74-14.191-216.51 19.23-71.762 61.602-135.18 120.54-180.4 58.941-45.23 131.16-69.746 205.46-69.746s146.52 24.516 205.46 69.746c58.941 45.227 101.31 108.64 120.54 180.4 19.23 71.766 14.242 147.87-14.191 216.51-28.43 68.641-78.719 125.98-143.06 163.13-8.6445 5.0078-18.93 6.3594-28.574 3.7539-9.6445-2.6055-17.852-8.9492-22.801-17.629-4.8906-8.6094-6.1758-18.805-3.5742-28.359 2.5977-9.5547 8.8711-17.695 17.449-22.641 39.895-23.031 73.023-56.156 96.062-96.047s35.172-85.137 35.188-131.2zm262.5 0c0 110.98-35.168 219.1-100.45 308.84-65.289 89.746-157.33 156.49-262.92 190.66-3.7695 1.168-7.6797 1.8008-11.625 1.875-13.398 2.0781-26.887-3.1523-35.383-13.715-8.4961-10.566-10.711-24.859-5.8125-37.5 4.9023-12.641 16.172-21.707 29.57-23.785 102.02-32.965 188.91-101.27 245.03-192.61s77.797-199.72 61.109-305.62c-16.688-105.9-70.633-202.37-152.13-272.02-81.492-69.66-185.18-107.93-292.39-107.93s-210.89 38.273-292.39 107.93c-81.496 69.656-135.44 166.12-152.13 272.02-16.688 105.9 4.9844 214.28 61.109 305.62s143.02 159.65 245.03 192.61c12.793 4.1523 22.402 14.816 25.203 27.973s-1.6328 26.809-11.625 35.812c-9.9961 9.0039-24.035 11.992-36.828 7.8398-123.55-39.98-227.91-124.33-292.89-236.76-64.992-112.43-86.008-244.95-58.988-371.97 27.016-127.02 100.15-239.52 205.27-315.76 105.12-76.246 234.77-110.82 363.9-97.055 129.13 13.77 248.57 74.906 335.25 171.6 86.684 96.691 134.45 222.08 134.08 351.94z"/>
        </symbol>
        <symbol id="radio" viewBox="0 0 1200 1200">
            <path d="m1012.5 375h-612l624.75-227.25c9.6211-3.1758 17.547-10.105 21.973-19.215 4.4297-9.1094 4.9844-19.625 1.5391-29.152-3.4453-9.5234-10.598-17.25-19.828-21.422-9.2344-4.168-19.758-4.4258-29.184-0.71094l-821.25 297.75c-28.25 2.2656-54.605 15.113-73.793 35.969-19.188 20.859-29.797 48.191-29.707 76.531v525c0 29.836 11.852 58.453 32.949 79.551 21.098 21.098 49.715 32.949 79.551 32.949h825c29.836 0 58.453-11.852 79.551-32.949 21.098-21.098 32.949-49.715 32.949-79.551v-525c0-29.836-11.852-58.453-32.949-79.551-21.098-21.098-49.715-32.949-79.551-32.949zm37.5 637.5c0 9.9453-3.9492 19.484-10.984 26.516-7.0312 7.0352-16.57 10.984-26.516 10.984h-825c-9.9453 0-19.484-3.9492-26.516-10.984-7.0352-7.0312-10.984-16.57-10.984-26.516v-525c0-9.9453 3.9492-19.484 10.984-26.516 7.0312-7.0352 16.57-10.984 26.516-10.984h825c9.9453 0 19.484 3.9492 26.516 10.984 7.0352 7.0312 10.984 16.57 10.984 26.516zm-600-487.5c-59.672 0-116.9 23.707-159.1 65.902-42.195 42.195-65.902 99.426-65.902 159.1s23.707 116.9 65.902 159.1c42.195 42.195 99.426 65.902 159.1 65.902s116.9-23.707 159.1-65.902c42.195-42.195 65.902-99.426 65.902-159.1s-23.707-116.9-65.902-159.1c-42.195-42.195-99.426-65.902-159.1-65.902zm0 375c-39.781 0-77.938-15.805-106.07-43.934s-43.934-66.285-43.934-106.07 15.805-77.938 43.934-106.07 66.285-43.934 106.07-43.934 77.938 15.805 106.07 43.934 43.934 66.285 43.934 106.07-15.805 77.938-43.934 106.07-66.285 43.934-106.07 43.934zm525-300c0 9.9453-3.9492 19.484-10.984 26.516-7.0312 7.0352-16.57 10.984-26.516 10.984h-150c-13.398 0-25.777-7.1484-32.477-18.75-6.6992-11.602-6.6992-25.898 0-37.5 6.6992-11.602 19.078-18.75 32.477-18.75h150c9.9453 0 19.484 3.9492 26.516 10.984 7.0352 7.0312 10.984 16.57 10.984 26.516zm0 150c0 9.9453-3.9492 19.484-10.984 26.516-7.0312 7.0352-16.57 10.984-26.516 10.984h-150c-13.398 0-25.777-7.1484-32.477-18.75-6.6992-11.602-6.6992-25.898 0-37.5 6.6992-11.602 19.078-18.75 32.477-18.75h150c9.9453 0 19.484 3.9492 26.516 10.984 7.0352 7.0312 10.984 16.57 10.984 26.516zm0 150c0 9.9453-3.9492 19.484-10.984 26.516-7.0312 7.0352-16.57 10.984-26.516 10.984h-150c-13.398 0-25.777-7.1484-32.477-18.75-6.6992-11.602-6.6992-25.898 0-37.5 6.6992-11.602 19.078-18.75 32.477-18.75h150c9.9453 0 19.484 3.9492 26.516 10.984 7.0352 7.0312 10.984 16.57 10.984 26.516z"/>
        </symbol>
        <symbol id="share" viewBox="0 0 1200 1200">
            <path d="m975 787.5v225c0 29.836-11.852 58.453-32.949 79.551-21.098 21.098-49.715 32.949-79.551 32.949h-675c-29.836 0-58.453-11.852-79.551-32.949-21.098-21.098-32.949-49.715-32.949-79.551v-675c0-29.836 11.852-58.453 32.949-79.551 21.098-21.098 49.715-32.949 79.551-32.949h112.5c13.398 0 25.777 7.1484 32.477 18.75 6.6992 11.602 6.6992 25.898 0 37.5-6.6992 11.602-19.078 18.75-32.477 18.75h-112.5c-9.9453 0-19.484 3.9492-26.516 10.984-7.0352 7.0312-10.984 16.57-10.984 26.516v675c0 9.9453 3.9492 19.484 10.984 26.516 7.0312 7.0352 16.57 10.984 26.516 10.984h675c9.9453 0 19.484-3.9492 26.516-10.984 7.0352-7.0312 10.984-16.57 10.984-26.516v-225c0-13.398 7.1484-25.777 18.75-32.477 11.602-6.6992 25.898-6.6992 37.5 0 11.602 6.6992 18.75 19.078 18.75 32.477zm139.12-385.88-262.5 262.5c-5.2734 5.2031-11.969 8.7266-19.246 10.129-7.2734 1.4023-14.801 0.61719-21.629-2.2539-6.8477-2.8125-12.711-7.5898-16.848-13.73-4.1367-6.1406-6.3672-13.367-6.4023-20.77v-112.5h-75c-69.621 0-136.39 27.656-185.62 76.883-49.227 49.23-76.883 116-76.883 185.62 0 13.398-7.1484 25.777-18.75 32.477-11.602 6.6992-25.898 6.6992-37.5 0-11.602-6.6992-18.75-19.078-18.75-32.477v-225c0-89.512 35.559-175.36 98.852-238.65 63.293-63.293 149.14-98.852 238.65-98.852h75v-112.5c0.035156-7.4023 2.2656-14.629 6.4023-20.77 4.1367-6.1406 10-10.918 16.848-13.73 6.8281-2.8711 14.355-3.6562 21.629-2.2539 7.2773 1.4023 13.973 4.9258 19.246 10.129l262.5 262.5c7.0977 7.043 11.094 16.625 11.094 26.625s-3.9961 19.582-11.094 26.625zm-79.5-26.625-172.12-172.12v59.625c0 9.9453-3.9492 19.484-10.984 26.516-7.0312 7.0352-16.57 10.984-26.516 10.984h-112.5c-69.621 0-136.39 27.656-185.62 76.883-49.227 49.23-76.883 116-76.883 185.62v13.125c31.613-39.195 71.594-70.82 117.02-92.559 45.422-21.738 95.129-33.035 145.48-33.066h112.5c9.9453 0 19.484 3.9492 26.516 10.984 7.0352 7.0312 10.984 16.57 10.984 26.516v59.625z"/>
        </symbol>
    </defs>
</svg>